<svg width="16" height="17" viewBox="0 0 16 17" fill="none" xmlns="http://www.w3.org/2000/svg">
<path fill-rule="evenodd" clip-rule="evenodd" d="M7.99995 1.76074C10.1361 1.76074 10.3891 1.76887 11.2326 1.80736C12.0126 1.84296 12.4362 1.97329 12.7181 2.08281C13.0915 2.22794 13.3581 2.40133 13.638 2.68125C13.9179 2.96118 14.0913 3.22771 14.2364 3.6011C14.346 3.88303 14.4763 4.30662 14.5119 5.08659C14.5504 5.93018 14.5585 6.18318 14.5585 8.31929C14.5585 10.4554 14.5504 10.7084 14.5119 11.552C14.4763 12.332 14.346 12.7555 14.2364 13.0375C14.0913 13.4109 13.9179 13.6774 13.638 13.9573C13.3581 14.2372 13.0915 14.4106 12.7181 14.5557C12.4362 14.6653 12.0126 14.7956 11.2326 14.8312C10.3892 14.8697 10.1362 14.8778 7.99995 14.8778C5.86372 14.8778 5.61072 14.8697 4.76728 14.8312C3.98729 14.7956 3.56369 14.6653 3.2818 14.5557C2.90838 14.4106 2.64185 14.2372 2.36192 13.9573C2.08199 13.6774 1.9086 13.4109 1.76351 13.0375C1.65395 12.7555 1.52362 12.332 1.48802 11.552C1.44954 10.7084 1.44141 10.4554 1.44141 8.31929C1.44141 6.18318 1.44954 5.93018 1.48802 5.08662C1.52362 4.30662 1.65395 3.88303 1.76351 3.6011C1.9086 3.22771 2.08199 2.96118 2.36192 2.68125C2.64185 2.40133 2.90838 2.22794 3.2818 2.08281C3.56369 1.97329 3.98729 1.84296 4.76725 1.80736C5.61085 1.76887 5.86385 1.76074 7.99995 1.76074ZM7.99998 0.319336C5.8273 0.319336 5.5549 0.328545 4.70161 0.367478C3.85007 0.406348 3.26855 0.541565 2.75966 0.739341C2.23359 0.943787 1.78745 1.21733 1.34271 1.66208C0.897966 2.10682 0.624419 2.55296 0.419974 3.07903C0.222197 3.58792 0.0869798 4.16944 0.0481104 5.02098C0.0091775 5.87423 0 6.14667 0 8.31935C0 10.492 0.0091775 10.7645 0.0481104 11.6177C0.0869798 12.4693 0.222197 13.0508 0.419974 13.5597C0.624419 14.0857 0.897966 14.5319 1.34271 14.9766C1.78745 15.4214 2.23359 15.6949 2.75966 15.8994C3.26855 16.0971 3.85007 16.2324 4.70161 16.2712C5.5549 16.3102 5.8273 16.3193 7.99998 16.3193C10.1727 16.3193 10.4451 16.3102 11.2984 16.2712C12.1499 16.2324 12.7314 16.0971 13.2403 15.8994C13.7664 15.6949 14.2125 15.4214 14.6573 14.9766C15.102 14.5319 15.3755 14.0857 15.58 13.5597C15.7778 13.0508 15.913 12.4693 15.9519 11.6177C15.9908 10.7645 16 10.492 16 8.31935C16 6.14667 15.9908 5.87423 15.9519 5.02098C15.913 4.16944 15.7778 3.58792 15.58 3.07903C15.3755 2.55296 15.102 2.10682 14.6573 1.66208C14.2125 1.21733 13.7664 0.943787 13.2403 0.739341C12.7314 0.541565 12.1499 0.406348 11.2984 0.367478C10.4451 0.328545 10.1727 0.319336 7.99998 0.319336ZM8.0159 4.22412C5.7454 4.22412 3.90479 6.06474 3.90479 8.33523C3.90479 10.6057 5.7454 12.4463 8.0159 12.4463C10.2864 12.4463 12.127 10.6057 12.127 8.33523C12.127 6.06474 10.2864 4.22412 8.0159 4.22412ZM8.01591 11.0037C6.54209 11.0037 5.34729 9.80895 5.34729 8.33513C5.34729 6.86131 6.54209 5.6665 8.01591 5.6665C9.48974 5.6665 10.6845 6.86131 10.6845 8.33513C10.6845 9.80895 9.48974 11.0037 8.01591 11.0037ZM13.2064 4.03366C13.2064 4.55965 12.78 4.98606 12.254 4.98606C11.728 4.98606 11.3016 4.55965 11.3016 4.03366C11.3016 3.50767 11.728 3.0813 12.254 3.0813C12.78 3.0813 13.2064 3.50767 13.2064 4.03366Z" fill="#8C8C8C"/>
</svg>
