<svg width="16" height="15" viewBox="0 0 16 15" fill="none" xmlns="http://www.w3.org/2000/svg">
<path fill-rule="evenodd" clip-rule="evenodd" d="M1.09436 4.71069H3.92939V14.5911H1.09436V4.71069ZM2.43967 3.47484H2.41915C1.39289 3.47484 0.727539 2.71954 0.727539 1.76307C0.727539 0.787035 1.41256 0.0466309 2.45934 0.0466309C3.50527 0.0466309 4.14839 0.785173 4.16891 1.76027C4.16891 2.71674 3.50527 3.47484 2.43967 3.47484ZM15.273 14.5921H12.0582V9.47818C12.0582 8.13986 11.5554 7.22716 10.4496 7.22716C9.60379 7.22716 9.13342 7.84277 8.91448 8.43789C8.83238 8.65023 8.84521 8.94732 8.84521 9.24535V14.5921H5.6604C5.6604 14.5921 5.70145 5.53401 5.6604 4.71072H8.84521V6.26138C9.03336 5.58337 10.0511 4.61572 11.6751 4.61572C13.69 4.61572 15.273 6.03786 15.273 9.09727V14.5921Z" fill="#8C8C8C"/>
</svg>
