<svg width="166" height="41" viewBox="0 0 166 41" fill="none" xmlns="http://www.w3.org/2000/svg">
<path fill-rule="evenodd" clip-rule="evenodd" d="M127.246 9.41187C130.301 9.41187 132.6 10.2162 133.896 11.7361C135.077 13.1201 135.472 15.0972 135.062 17.6117C134.155 23.3635 130.685 26.2646 124.671 26.2646H121.783C121.16 26.2646 120.628 26.7173 120.531 27.3333L119.483 33.9495C119.415 34.3812 119.042 34.6983 118.607 34.6983H113.922C113.457 34.6983 113.098 34.2825 113.172 33.8221L116.864 10.4801C116.962 9.86499 117.493 9.41187 118.117 9.41187H127.246ZM122.877 21.2038C125.298 21.2038 127.8 21.2038 128.298 17.9373C128.482 16.7899 128.335 15.9597 127.856 15.4005C127.053 14.4634 125.496 14.4634 123.85 14.4634H123.218C122.841 14.4634 122.525 14.7345 122.468 15.1035L121.499 21.2038H122.877Z" fill="#B7B7BF"/>
<path fill-rule="evenodd" clip-rule="evenodd" d="M150.162 17.8318H154.529C154.999 17.8318 155.356 18.249 155.283 18.708L152.919 33.6273C152.822 34.2433 152.29 34.6973 151.667 34.6973H147.731C147.263 34.6973 146.906 34.2824 146.979 33.8183L147.173 32.6082C147.173 32.6082 145.015 35.1031 141.124 35.1031C138.856 35.1031 136.953 34.4507 135.618 32.8862C134.165 31.1833 133.575 28.7417 133.99 26.189C134.795 21.071 138.919 17.4219 143.749 17.4219C145.856 17.4219 147.965 17.8795 148.911 19.2498L149.217 19.692L149.412 18.4723C149.467 18.1034 149.786 17.8318 150.162 17.8318ZM143.505 30.4786C146.033 30.4786 148.018 28.808 148.437 26.3173C148.63 25.1103 148.367 24.0157 147.696 23.2328C147.031 22.4562 146.023 22.0449 144.781 22.0449C142.292 22.0449 140.28 23.7714 139.883 26.2417C139.68 27.4528 139.924 28.5392 140.569 29.3035C141.221 30.0728 142.238 30.4786 143.505 30.4786Z" fill="#B7B7BF"/>
<path d="M164.652 9.41089H160.434C160.062 9.41225 159.741 9.6834 159.683 10.0524L155.937 33.822C155.864 34.2824 156.221 34.6982 156.687 34.6982H160.454C161.08 34.6982 161.611 34.246 161.707 33.63L165.402 10.2876C165.475 9.82761 165.118 9.41089 164.652 9.41089Z" fill="#B7B7BF"/>
<path fill-rule="evenodd" clip-rule="evenodd" d="M62.1359 9.41187C65.1911 9.41187 67.4926 10.2162 68.7901 11.7361C69.9707 13.1201 70.3617 15.0972 69.9534 17.6117C69.0478 23.3635 65.577 26.2646 59.5644 26.2646H56.6748C56.0507 26.2646 55.5183 26.7173 55.4225 27.3333L54.4262 33.6301C54.329 34.2461 53.7971 34.6983 53.173 34.6983H48.815C48.3464 34.6983 47.9892 34.2825 48.0622 33.8221L51.7542 10.4801C51.8514 9.86499 52.3833 9.41187 53.0074 9.41187H62.1359ZM57.7674 21.2038C60.1871 21.2038 62.6898 21.2038 63.1889 17.9373C63.3713 16.7899 63.2249 15.9597 62.7454 15.4005C61.9416 14.4634 60.3869 14.4634 58.7386 14.4634H58.1073C57.7341 14.4634 57.4134 14.7345 57.3559 15.1035L56.3901 21.2038H57.7674Z" fill="#87878D"/>
<path fill-rule="evenodd" clip-rule="evenodd" d="M85.0506 17.8318H89.4228C89.8886 17.8318 90.2458 18.249 90.1714 18.708L87.8093 33.6273C87.7098 34.2433 87.1811 34.6973 86.5556 34.6973H82.6182C82.1519 34.6973 81.7938 34.2824 81.8677 33.8183L82.0625 32.6082C82.0625 32.6082 79.9038 35.1031 76.012 35.1031C73.7447 35.1031 71.8382 34.4507 70.5061 32.8862C69.054 31.1833 68.4605 28.7417 68.8775 26.189C69.6818 21.071 73.8072 17.4219 78.6378 17.4219C80.7432 17.4219 82.8536 17.8795 83.7993 19.2498L84.1049 19.692L84.2997 18.4723C84.3567 18.1034 84.6784 17.8318 85.0506 17.8318ZM78.3965 30.4786C80.9248 30.4786 82.9065 28.808 83.3285 26.3173C83.5192 25.1103 83.2555 24.0157 82.589 23.2328C81.9238 22.4562 80.9152 22.0449 79.6734 22.0449C77.1839 22.0449 75.1689 23.7714 74.7752 26.2417C74.5695 27.4528 74.8149 28.5392 75.4609 29.3035C76.1128 30.0728 77.1269 30.4786 78.3965 30.4786Z" fill="#87878D"/>
<path d="M112.702 17.8318H108.309C107.891 17.8318 107.497 18.0397 107.259 18.3868L101.2 27.2868L98.6323 18.7353C98.4708 18.2003 97.9759 17.8327 97.4152 17.8327H93.0991C92.574 17.8327 92.2104 18.344 92.3774 18.8367L97.2154 32.9963L92.6662 39.3991C92.3076 39.9027 92.6689 40.5978 93.2866 40.5978H97.6739C98.089 40.5978 98.4809 40.3949 98.7163 40.0546L113.326 19.0246C113.677 18.521 113.317 17.8318 112.702 17.8318Z" fill="#87878D"/>
<path d="M33.0023 12.005C32.5192 11.4577 31.9202 11.0041 31.219 10.6343C31.1816 10.8722 31.1397 11.1161 31.0913 11.3663C31.0457 11.5997 30.996 11.8271 30.9444 12.0519C29.3491 19.0038 24.8952 21.9841 19.0896 22.611C18.7028 22.6529 18.31 22.6838 17.9113 22.7052C17.4733 22.7288 17.0285 22.7397 16.5778 22.7397H12.905C12.0222 22.7397 11.2791 23.3785 11.1413 24.2474L9.47572 34.7802L9.26039 36.1404L8.72847 39.5124C8.6386 40.0811 9.07928 40.5966 9.65592 40.5966H16.1704C16.9419 40.5966 17.597 40.0374 17.7192 39.2791L17.7831 38.9483L19.0094 31.1857L19.0883 30.7585C19.2083 29.9969 19.8652 29.4387 20.6371 29.4387H21.6115C27.9235 29.4387 32.8645 26.8838 34.3089 19.4874C34.9111 16.3988 34.599 13.8193 33.0023 12.005Z" fill="#B7B7BF"/>
<path d="M11.1407 24.2477L11.2009 23.8619L13.2889 10.676C13.3697 10.1537 13.7059 9.72605 14.1589 9.50996C14.3655 9.41169 14.5936 9.3571 14.835 9.3571H24.6483C25.8111 9.3571 26.8959 9.43353 27.8859 9.59321C28.1687 9.63825 28.4438 9.69011 28.7125 9.7488C28.9799 9.80931 29.2399 9.87527 29.4917 9.94806C29.5875 9.97673 29.681 10.0058 29.7746 10.035C29.8033 10.0445 29.8334 10.0527 29.8617 10.0627C29.8786 10.0686 29.8941 10.075 29.911 10.0809C30.3767 10.2379 30.8124 10.4198 31.2143 10.6318C31.2161 10.6327 31.218 10.6323 31.2198 10.6337C31.7111 7.50914 31.2157 5.38275 29.5218 3.45654C27.6546 1.33652 24.2847 0.428467 19.9718 0.428467H7.45232C6.5714 0.428467 5.81958 1.0672 5.68364 1.93704L0.468379 34.901C0.365734 35.5534 0.870289 36.1407 1.52995 36.1407H9.25841L9.47373 34.7805L11.1407 24.2477Z" fill="#87878D"/>
<path d="M31.2152 10.6324C30.8128 10.4199 30.3776 10.238 29.9118 10.0815C29.895 10.0756 29.8795 10.0692 29.8626 10.0633C29.8338 10.0537 29.8042 10.0451 29.7754 10.0355C29.6819 10.0064 29.5884 9.97729 29.4926 9.94863C29.2403 9.87584 28.9803 9.80942 28.7134 9.74937C28.4452 9.69068 28.1701 9.63882 27.8868 9.59378C26.8968 9.4341 25.812 9.35767 24.6491 9.35767H14.8354C14.5936 9.35767 14.3655 9.41226 14.1593 9.51053C13.7063 9.72662 13.3701 10.1538 13.2894 10.6765L11.2013 23.8629L11.1411 24.2478C11.2789 23.3798 12.0225 22.7406 12.9048 22.7406H16.5776C17.0284 22.7406 17.4731 22.7292 17.9111 22.7051C18.3098 22.6837 18.7026 22.6533 19.0895 22.6109C24.8955 21.9845 29.3489 19.0033 30.9442 12.0523C30.9958 11.8275 31.046 11.6001 31.0911 11.3667C31.1395 11.116 31.1819 10.8726 31.2189 10.6347C31.2179 10.6338 31.2166 10.6329 31.2152 10.6324Z" fill="#626266"/>
</svg>
