<?xml version="1.0" standalone="no"?>
<!DOCTYPE svg PUBLIC "-//W3C//DTD SVG 20010904//EN"
 "http://www.w3.org/TR/2001/REC-SVG-20010904/DTD/svg10.dtd">
<svg version="1.0" xmlns="http://www.w3.org/2000/svg"
 width="500.000000pt" height="300.000000pt" viewBox="0 0 500.000000 300.000000"
 preserveAspectRatio="xMidYMid meet">

<g transform="translate(0.000000,300.000000) scale(0.100000,-0.100000)"
fill="#000000" stroke="none">
<path d="M1250 1220 l0 -960 1250 0 1250 0 0 955 0 955 -95 0 -94 0 38 -78
c62 -123 103 -250 119 -371 l9 -61 -319 0 -320 0 6 28 c23 115 37 205 33 220
-3 12 -5 11 -6 -6 -1 -32 -57 -317 -87 -442 -13 -58 -47 -204 -74 -324 -73
-321 -73 -321 -300 -155 -84 61 -157 112 -164 115 -7 3 -56 -36 -109 -86 -53
-49 -101 -90 -105 -90 -28 0 -61 65 -117 233 l-60 182 -135 43 c-166 53 -196
66 -209 91 -21 39 21 67 195 130 89 33 175 66 190 74 16 8 95 38 177 67 81 29
146 55 144 57 -2 2 -87 -27 -188 -64 l-184 -68 -407 -3 c-273 -2 -408 1 -408
8 0 5 7 51 16 101 17 101 65 243 113 334 17 33 31 63 31 67 0 5 -43 8 -95 8
l-95 0 0 -960z"/>
<path d="M3131 1954 c0 -11 3 -14 6 -6 3 7 2 16 -1 19 -3 4 -6 -2 -5 -13z"/>
<path d="M2750 1910 c-8 -5 -10 -10 -5 -10 6 0 17 5 25 10 8 5 11 10 5 10 -5
0 -17 -5 -25 -10z"/>
</g>
</svg>
