<svg width="16" height="15" viewBox="0 0 16 15" fill="none" xmlns="http://www.w3.org/2000/svg">
<path fill-rule="evenodd" clip-rule="evenodd" d="M15.1118 8.75251L9.9585 12.4949L14.5555 6.604L15.1829 8.53141C15.2094 8.6134 15.1808 8.70233 15.1118 8.75251ZM0.887863 8.7527C0.818641 8.70237 0.790011 8.61345 0.816552 8.53174L1.44402 6.60376L6.04072 12.4969L0.887863 8.7527ZM3.25612 1.02002L4.68914 5.42387H1.82837L3.25612 1.02002ZM10.2674 6.18359L8.00129 13.1567L5.73523 6.18359H10.2674ZM12.7435 1.02002L14.1739 5.42387H11.3131L12.7435 1.02002ZM4.93542 6.18652L6.97065 12.4494L2.08557 6.18652H4.93542ZM11.0651 6.18652H13.9173L9.02942 12.4507L11.0651 6.18652ZM15.9053 8.29648L15.0716 5.73468C15.0672 5.71113 15.06 5.68806 15.0511 5.66541L13.3786 0.516354C13.2864 0.242787 13.031 0.0595703 12.7424 0.0595703C12.7412 0.0595703 12.74 0.0595703 12.7388 0.0595703C12.4457 0.0611846 12.1978 0.241932 12.1071 0.520437L10.5144 5.42384H5.48807L3.89239 0.520199C3.8018 0.241932 3.55387 0.0611846 3.26079 0.0595703C2.97175 0.0599501 2.71361 0.2416 2.61956 0.520627L0.948292 5.67557C0.946583 5.68008 0.944351 5.68435 0.942832 5.68901L0.0941199 8.29672C-0.0343549 8.69245 0.10504 9.12255 0.441182 9.36701L7.77469 14.6957C7.84173 14.7444 7.91997 14.7682 7.99779 14.7682C8.07774 14.7682 8.15703 14.7427 8.22345 14.6935C8.22388 14.6932 8.22435 14.693 8.22478 14.6927L15.5585 9.36692C15.8945 9.12255 16.0339 8.69245 15.9053 8.29648Z" fill="#8C8C8C"/>
</svg>
