<svg width="165" height="54" viewBox="0 0 165 54" fill="none" xmlns="http://www.w3.org/2000/svg">
<path fill-rule="evenodd" clip-rule="evenodd" d="M21.2018 0C9.6661 0 0 9.41907 0 20.9534C0 32.4878 9.6661 41.867 21.2416 41.9069C27.447 41.9069 32.1408 39.8714 35.8004 36.0399C39.5793 32.2882 40.7329 26.98 40.7329 22.6696C40.7329 21.3126 40.6135 20.1153 40.4147 19.0776H21.2018V24.7849H34.8457C34.4479 27.9778 33.3739 30.3326 31.743 31.969C29.7541 33.9645 26.6514 36.1596 21.2018 36.1596C12.8086 36.1596 6.24518 29.3747 6.24518 20.9534C6.24518 12.5322 12.8086 5.74723 21.2018 5.74723C25.7365 5.74723 29.0779 7.50333 31.5043 9.81818L35.5219 5.78714C32.101 2.51441 27.5663 0 21.2018 0ZM42.7218 28.4169C42.7218 20.5942 48.7681 14.9268 56.2066 14.9268C63.6451 14.9268 69.6914 20.5942 69.6914 28.4169C69.6914 36.1996 63.6451 41.9069 56.2066 41.9069C48.7681 41.9069 42.7218 36.1996 42.7218 28.4169ZM48.609 28.3769C48.609 33.2062 52.1492 36.5588 56.2066 36.5588C60.264 36.5588 63.8042 33.2062 63.8042 28.3769C63.8042 23.5078 60.264 20.1951 56.2066 20.1951C52.1095 20.1951 48.609 23.5078 48.609 28.3769ZM72.1577 28.4169C72.1577 20.5942 78.204 14.9268 85.6425 14.9268C93.081 14.9268 99.1273 20.5942 99.1273 28.4169C99.1273 36.1996 93.081 41.9069 85.6425 41.9069C78.204 41.9069 72.1577 36.1996 72.1577 28.4169ZM78.0448 28.3769C78.0448 33.2062 81.5851 36.5588 85.6425 36.5588C89.6999 36.5588 93.2401 33.2062 93.2401 28.3769C93.2401 23.5078 89.7396 20.1951 85.6425 20.1951C81.5453 20.1951 78.0448 23.5078 78.0448 28.3769ZM121.761 17.9202V15.7251H127.41V39.9512C127.41 49.929 121.562 54 114.641 54C108.117 54 104.179 49.6098 102.707 46.0177L107.839 43.8625C108.754 46.0576 110.981 48.6519 114.601 48.6519C119.016 48.6519 121.761 45.898 121.761 40.7494V38.7938H121.562C120.25 40.4302 117.704 41.867 114.482 41.867C107.759 41.867 101.594 35.9601 101.594 28.4169C101.594 20.7938 107.759 14.8869 114.482 14.8869C117.704 14.8869 120.25 16.3237 121.562 17.9202H121.761ZM107.52 28.4169C107.52 33.1264 110.941 36.5588 114.999 36.5588C119.016 36.5588 122.199 33.1663 122.159 28.4169C122.159 23.6674 119.016 20.1951 114.999 20.1951C110.941 20.1951 107.52 23.6674 107.52 28.4169ZM137.354 1.43681H131.467V41.0687H137.354V1.43681ZM153.544 36.5587C150.521 36.5587 148.412 35.1618 147.02 32.4877L165 25.0243L164.403 23.5077C163.29 20.4744 159.869 14.9268 152.907 14.9268C145.986 14.9268 140.218 20.3946 140.218 28.4168C140.218 35.96 145.906 41.9068 153.544 41.9068C159.709 41.9068 163.25 38.1152 164.761 35.9201L160.187 32.8469C158.635 35.082 156.567 36.5587 153.544 36.5587ZM153.106 20.1152C155.453 20.1152 157.442 21.2727 158.079 22.9888L146.066 27.9778C145.906 22.7893 150.083 20.1152 153.106 20.1152Z" fill="#7C7C82"/>
</svg>
