<svg width="16" height="14" viewBox="0 0 16 14" fill="none" xmlns="http://www.w3.org/2000/svg">
<path fill-rule="evenodd" clip-rule="evenodd" d="M14.2011 2.57084C14.8483 2.1624 15.345 1.51476 15.578 0.74326C14.972 1.12239 14.3024 1.39658 13.5879 1.54501C13.0178 0.902098 12.2029 0.501221 11.3011 0.501221C9.57097 0.501221 8.16893 1.98087 8.16893 3.80562C8.16893 4.06468 8.19492 4.31712 8.24871 4.55821C5.64543 4.42017 3.33709 3.10598 1.79072 1.10537C1.52089 1.59512 1.3667 2.1624 1.3667 2.7675C1.3667 3.9134 1.91981 4.92505 2.76068 5.5188C2.24701 5.50179 1.76383 5.35146 1.34071 5.10564V5.14629C1.34071 6.74791 2.42003 8.08385 3.85523 8.3864C3.59168 8.46393 3.31557 8.50269 3.02871 8.50269C2.82701 8.50269 2.62979 8.48284 2.43975 8.44407C2.83777 9.75638 3.99508 10.7132 5.36664 10.7387C4.2936 11.6256 2.94265 12.1531 1.47517 12.1531C1.22238 12.1531 0.972268 12.139 0.727539 12.1077C2.11434 13.0447 3.76111 13.5921 5.53069 13.5921C11.2948 13.5921 14.4449 8.55658 14.4449 4.18948C14.4449 4.04577 14.4431 3.903 14.4369 3.76213C15.0491 3.29602 15.5816 2.71361 16.0003 2.05084C15.4382 2.31368 14.834 2.49142 14.2011 2.57084Z" fill="#8C8C8C"/>
</svg>
