<svg width="166" height="66" viewBox="0 0 166 66" fill="none" xmlns="http://www.w3.org/2000/svg">
<path fill-rule="evenodd" clip-rule="evenodd" d="M149.627 0.868451C156.358 1.46538 158.041 2.42571 159.812 3.95736C164.4 7.92428 165.424 18.6623 165.575 29.3466C165.608 31.6466 165.608 33.9532 165.575 36.2534C165.424 46.9377 164.4 57.6758 159.812 61.6427C158.041 63.174 156.358 64.1347 149.627 64.7313C141.205 65.4779 129.799 65.5831 121.176 65.5959C117.618 65.6014 114.058 65.6014 110.5 65.5959C101.877 65.5828 90.4706 65.4782 82.0483 64.7313C75.318 64.1347 73.6349 63.174 71.8639 61.6427C67.2364 57.6416 66.2346 46.7521 66.0967 35.9769C66.0709 33.9523 66.0703 31.9237 66.0933 29.8991C66.2177 19.0345 67.1971 7.99257 71.8639 3.95736C73.6349 2.42601 75.318 1.46538 82.0483 0.868451C90.4706 0.121833 101.877 0.0172639 110.5 0.00415462C114.058 -0.00133297 117.618 -0.00133297 121.176 0.00384976C121.176 0.00384976 141.205 0.121833 149.627 0.868451Z" fill="#707176"/>
<path fill-rule="evenodd" clip-rule="evenodd" d="M54.5765 53.511H60.3665V21.853H54.5765V45.9835C50.4099 50.7578 49.3601 47.1901 49.3601 45.3976V21.853H43.5698V46.5214C43.5698 50.5488 44.5932 53.1157 47.1962 53.5231C48.9314 53.7943 51.4361 53.5252 54.5765 49.7506V53.511ZM7.7755 53.511H14.3037V36.5213L22.0675 11.2H15.5393L11.0338 27.1114L6.5282 11.2H0L7.7755 36.5594V53.511ZM30.4627 21.4961C35.2268 21.4961 39.1243 25.3296 39.1243 30.0154C39.1243 35.4722 39.1243 40.0568 39.1243 44.9921C39.1243 49.6776 35.2268 53.5111 30.4627 53.5111C25.6988 53.5111 21.801 49.6776 21.801 44.9921V30.0154C21.801 25.3296 25.6988 21.4961 30.4627 21.4961ZM27.6964 45.7604C27.6964 47.2569 28.9412 48.4809 30.4627 48.4809C31.9842 48.4809 33.229 47.2569 33.229 45.7604C33.229 40.2918 33.229 34.8407 33.229 29.3017C33.229 27.8052 31.9842 26.5808 30.4627 26.5808C28.9412 26.5808 27.6964 27.8052 27.6964 29.3017C27.6964 35.0149 27.6964 39.8206 27.6964 45.7604Z" fill="#707176"/>
<path fill-rule="evenodd" clip-rule="evenodd" d="M146.784 39.4196V45.729C146.784 46.7503 147.642 47.5891 148.687 47.5891C149.732 47.5891 150.591 46.7503 150.591 45.729V41.36H158.258V44.9626C158.258 50.108 153.953 54.3146 148.687 54.3146C143.421 54.3146 139.116 50.108 139.116 44.9626V30.023C139.116 24.8776 143.421 20.6707 148.687 20.6707C153.953 20.6707 158.258 24.8776 158.258 30.023V39.4196H146.784ZM136.193 45.1381C136.363 46.4179 136.262 48.0369 135.972 49.2709C135.326 52.0188 133.603 53.9725 130.619 54.3087C128.899 54.5027 127.299 54.109 125.892 53.1241C125.551 52.8855 125.245 52.6309 124.96 52.3631V54.3144H117.398V10.3999H124.96V22.7477C126.39 21.5643 128.139 20.6705 129.972 20.6705C134.996 20.6705 136.193 24.794 136.193 28.9994V45.1381ZM124.96 46.5893C125.462 47.0659 126.177 47.519 126.851 47.5003C127.188 47.4907 127.569 47.4361 127.853 47.246C128.483 46.8255 128.552 45.7222 128.552 45.0612C128.552 37.8516 128.598 30.1538 128.598 30.1532V30.121L128.6 30.0906C128.633 29.6498 128.557 29.0744 128.42 28.6589C128.183 27.938 127.757 27.5011 126.955 27.4487C126.173 27.3981 125.485 27.8813 124.96 28.42V46.5893ZM106.407 51.8944C104.591 53.5739 102.393 54.729 99.7334 54.3157C95.9373 53.7258 95.3552 49.5722 95.3552 46.4881V21.0266H102.917V45.3671C102.917 45.7211 102.964 46.0949 103.052 46.4378C103.13 46.7384 103.311 47.2464 103.599 47.4187C103.824 47.5528 104.154 47.4284 104.365 47.3298C105.083 46.9951 105.843 46.2522 106.407 45.6313V21.0266H113.969V54.3145H106.407V51.8944ZM81.1028 18.1317H74.2344V10.3999H96.274V18.1317H89.4056V54.3144H81.1028V18.1317ZM150.591 32.9063V29.311C150.591 28.2897 149.732 27.4509 148.687 27.4509C147.642 27.4509 146.784 28.2897 146.784 29.311V32.9063H150.591Z" fill="#7C7C82"/>
<path fill-rule="evenodd" clip-rule="evenodd" d="M118.286 53.5567H124.102V50.1883C125.208 51.5249 127.028 53.9536 130.538 53.5567C136.411 52.8927 135.34 45.2616 135.34 45.2616C135.34 45.2616 135.34 34.3667 135.34 29.0085C135.34 23.6504 133.408 21.5071 129.991 21.5071C127.198 21.5071 124.862 23.924 124.102 24.8063V11.2H118.286V53.5567ZM124.102 47.0044V28.0986C124.843 27.2506 125.837 26.5195 127.03 26.5975C129.763 26.7762 129.49 30.1697 129.49 30.1697C129.49 30.1697 129.445 42.7166 129.445 45.1278C129.445 47.539 128.488 48.3874 126.894 48.4321C125.532 48.4702 124.403 47.3364 124.102 47.0044Z" fill="#ECECEC"/>
<path fill-rule="evenodd" clip-rule="evenodd" d="M113.391 53.5104V21.6001H107.486V45.9229C103.237 50.7353 102.166 47.1391 102.166 45.3324V21.6001H96.2603V46.4651C96.2603 50.5246 97.3038 53.1119 99.9589 53.5226C101.729 53.7959 104.283 53.5247 107.486 49.72V53.5104H113.391Z" fill="#ECECEC"/>
<path fill-rule="evenodd" clip-rule="evenodd" d="M81.9534 53.5999H88.5413V17.2515H95.4444V11.2H75.0503V17.2515H81.9534V53.5999Z" fill="#ECECEC"/>
<path fill-rule="evenodd" clip-rule="evenodd" d="M148.877 21.6001C153.588 21.6001 157.443 25.4318 157.443 30.1154V38.6751H146.141V45.8531C146.141 47.3489 147.372 48.5724 148.877 48.5724C150.382 48.5724 151.613 47.3489 151.613 45.8531V42.3311H157.443V45.0851C157.443 49.7684 153.588 53.6001 148.877 53.6001C144.166 53.6001 140.312 49.7684 140.312 45.0851V30.1154C140.312 25.4318 144.166 21.6001 148.877 21.6001ZM151.613 33.8601V29.402C151.613 27.9062 150.382 26.6824 148.877 26.6824C147.372 26.6824 146.141 27.9062 146.141 29.402V33.8601H151.613Z" fill="#ECECEC"/>
</svg>
